{"glyphs":{":":{"x_min":0,"x_max":331,"ha":331,"o":"m 111 183 b 96 166 76 106 77 96 b 78 78 130 65 142 78 b 142 78 171 144 176 161 b 181 177 127 200 111 183 z m 161 369 b 145 352 126 293 126 283 b 128 265 179 252 192 264 b 192 264 221 330 225 347 b 230 363 177 386 161 369 z"},"$":{"x_min":0,"x_max":657,"ha":657,"o":"m 431 626 b 441 669 446 702 353 705 b 354 687 352 661 347 631 b 332 629 316 625 299 619 b 230 595 113 431 275 363 b 249 281 220 196 194 117 b 159 100 126 92 104 100 b 17 129 162 247 201 240 b 201 240 192 328 98 236 b -8 132 48 15 151 -1 b 154 -1 158 -2 162 -2 b 161 -73 237 -70 237 -70 b 236 -46 237 -20 240 6 b 408 56 527 297 357 368 b 352 370 348 371 344 373 b 367 435 390 493 407 544 b 443 540 464 510 434 440 b 434 440 493 411 518 466 b 549 533 508 604 431 626 z m 321 518 b 312 485 301 449 290 412 b 258 451 282 492 321 518 z m 276 170 b 292 226 312 284 332 339 b 388 300 343 226 276 170 z"},"?":{"x_min":0,"x_max":393,"ha":393,"o":"m 38 119 b 22 99 0 27 0 14 b 0 -8 46 -27 58 -12 b 58 -12 96 74 102 94 b 108 114 53 139 38 119 z m 369 615 b 345 690 125 615 88 557 b 62 517 111 498 111 498 b 159 575 250 598 257 563 b 275 480 100 273 74 215 b 47 156 127 133 127 133 b 105 199 393 540 369 615 z"},"<":{"x_min":0,"x_max":538,"ha":538,"o":"m 378 395 b 378 395 377 463 337 456 b 254 441 90 243 90 243 b 90 243 218 21 298 -7 b 336 -21 348 45 348 45 b 317 36 159 238 159 238 b 227 314 348 410 378 395 z"},"'":{"x_min":0,"x_max":184,"ha":184,"o":"m 128 523 b 114 551 150 617 165 632 b 184 651 114 674 100 653 b 86 632 62 576 68 546 b 73 524 117 508 128 523 z"},"=":{"x_min":0,"x_max":561,"ha":561,"o":"m 129 321 b 62 313 91 251 91 251 b 170 266 291 257 359 248 b 395 243 445 246 416 316 b 372 303 328 314 129 321 z m 129 208 b 62 201 91 139 91 139 b 170 154 291 145 359 136 b 395 131 445 134 416 203 b 372 191 328 202 129 208 z"},"a":{"x_min":0,"x_max":395,"ha":395,"o":"m 169 110 b 219 229 306 382 325 412 b 241 480 183 427 183 427 l 161 368 b 161 368 162 447 116 448 b -2 451 -151 171 -110 50 b -70 -65 33 42 77 102 b 63 67 55 45 57 28 b 61 -5 133 -5 133 -5 l 470 380 l 440 402 l 169 110 z m 126 270 b 126 270 126 269 125 269 l 124 266 b 124 266 124 265 124 265 b 120 254 116 242 112 231 b 99 194 81 160 56 131 b 45 119 34 109 28 109 b 25 109 24 110 23 114 b 12 149 133 387 132 317 b 131 291 128 277 126 270 z"},"L":{"x_min":0,"x_max":437,"ha":437,"o":"m 499 -140 b 454 -49 300 -6 154 -4 b 192 182 403 626 411 668 b 417 703 380 736 286 739 b 293 667 122 229 47 42 b 40 20 44 3 52 -11 b -25 -21 -90 -45 -121 -81 b -144 -108 -97 -136 -97 -136 b -5 -9 392 -62 424 -254 b 424 -254 538 -218 499 -140 z"},"3":{"x_min":0,"x_max":513,"ha":513,"o":"m 213 400 b 289 483 439 611 385 660 b 302 654 143 659 113 701 b 113 701 72 672 87 633 b 115 555 236 587 279 601 b 285 579 75 399 61 384 b 47 369 62 280 84 272 b 107 264 265 387 329 323 b 406 246 -33 -109 51 152 b 51 152 31 179 -33 107 b -68 -75 238 -52 385 173 b 532 397 213 400 213 400 z"},";":{"x_min":0,"x_max":374,"ha":374,"o":"m 183 369 b 167 352 147 293 148 283 b 149 265 201 252 213 264 b 213 264 242 330 247 347 b 252 363 198 386 183 369 z m 126 177 b 72 158 103 116 103 115 b 102 100 98 82 64 83 b 64 83 71 31 119 43 b 144 49 181 87 183 129 b 183 160 155 187 126 177 z"},"J":{"x_min":0,"x_max":513,"ha":513,"o":"m 536 329 b 520 314 392 269 326 250 b 410 420 468 607 485 664 b 547 659 591 639 596 610 b 596 610 649 617 632 648 b 534 824 92 717 17 579 b -23 503 80 451 80 451 b 107 577 244 642 370 660 b 344 556 273 363 194 211 b 70 173 -56 129 -94 77 b -122 40 -37 -68 9 -71 b 118 -79 219 48 300 200 b 397 229 551 278 551 278 l 536 329 z m -56 54 b -64 75 44 117 164 157 b 80 9 -9 -76 -56 54 z"},"V":{"x_min":0,"x_max":401,"ha":401,"o":"m 89 24 b 80 3 60 24 65 70 b 83 252 214 525 216 647 b 218 728 93 732 77 736 b 116 548 -22 212 -22 55 b -22 -24 29 -84 121 -75 b 172 79 448 741 554 775 b 554 775 437 839 397 774 b 292 608 141 145 89 24 z"},"\"":{"x_min":0,"x_max":302,"ha":302,"o":"m 152 518 b 138 546 174 612 189 627 b 207 646 138 669 124 648 b 109 627 85 571 92 541 b 97 519 140 503 152 518 z m 253 518 b 239 546 275 612 290 627 b 309 646 239 669 225 648 b 211 627 187 571 193 541 b 198 519 242 503 253 518 z"},"7":{"x_min":0,"x_max":390,"ha":390,"o":"m 297 703 b 297 703 127 653 6 706 b 6 706 -41 627 48 612 b 116 600 197 597 236 614 b 199 463 50 132 35 67 b 17 -13 125 -9 125 -9 b 133 92 305 522 337 622 b 363 703 297 703 297 703 z"},"S":{"x_min":0,"x_max":597,"ha":597,"o":"m 255 734 b 160 701 0 472 255 391 b 511 309 124 15 2 61 b -109 103 76 252 127 242 b 127 242 116 357 -6 238 b -143 104 -71 -49 62 -68 b 332 -109 586 300 329 408 b 0 546 554 790 428 502 b 428 502 505 464 538 535 b 597 665 452 803 255 734 z"},"}":{"x_min":0,"x_max":410,"ha":410,"o":"m 282 598 b 262 636 201 640 180 626 b 148 605 161 570 161 570 b 161 570 187 594 224 571 b 248 556 255 515 242 456 b 229 400 208 343 228 288 b 190 263 166 220 142 186 b 107 135 76 78 36 56 b -29 21 -38 78 -38 78 b -38 78 -72 79 -72 37 b -72 1 53 -58 144 80 b 247 239 226 221 303 258 b 303 258 276 313 278 349 b 281 402 334 501 282 598 z"},"Z":{"x_min":0,"x_max":472,"ha":472,"o":"m 470 744 b 470 744 230 632 32 726 b 32 726 -29 674 33 631 b 112 577 292 617 354 640 b 322 516 49 145 -20 42 b -66 -26 28 -87 54 -97 b 178 -2 475 271 475 271 l 456 301 b 169 60 134 54 131 57 b 184 151 466 564 489 612 b 511 656 470 744 470 744 z"},"x":{"x_min":0,"x_max":247,"ha":247,"o":"m 35 87 b 22 86 32 137 49 199 b 120 282 184 371 192 396 b 206 445 151 448 151 448 b 153 429 125 378 83 320 b 94 356 101 386 102 398 b 107 476 4 470 4 470 b 13 427 -23 277 -46 167 b -95 118 -143 82 -176 79 b -176 79 -174 17 -116 41 b -103 47 -83 61 -61 81 b -63 70 -64 60 -64 53 b -60 -118 159 111 321 384 l 287 405 b 230 307 66 90 35 87 z"},")":{"x_min":0,"x_max":410,"ha":410,"o":"m 156 607 b 372 575 217 212 -3 34 b -3 34 47 -51 140 44 b 182 87 408 401 285 588 b 234 665 156 607 156 607 z"},"&":{"x_min":0,"x_max":713,"ha":713,"o":"m 293 218 b 671 395 630 612 439 631 b 247 649 149 429 161 225 b 85 188 24 150 14 93 b -1 12 111 -21 239 -7 b 251 -22 264 -36 278 -48 b 438 -183 570 -46 484 23 b 484 23 442 -67 360 -25 b 347 -18 332 -7 316 8 b 435 38 547 109 565 221 b 579 312 493 276 493 276 b 504 231 482 95 268 67 b 248 99 231 137 221 182 b 242 194 266 206 293 218 z m 280 492 b 376 665 663 543 395 349 b 340 309 275 278 213 250 b 212 320 229 402 280 492 z m 199 62 b 194 62 189 62 183 62 b 89 63 91 99 171 152 b 177 120 186 90 199 62 z"},"_":{"x_min":0,"x_max":448,"ha":448,"o":"m 19 -23 b -48 -31 -19 -92 -19 -92 b 60 -78 181 -87 249 -96 b 285 -101 335 -98 306 -28 b 262 -40 217 -30 19 -23 z"},"v":{"x_min":0,"x_max":399,"ha":399,"o":"m 191 192 b 187 194 183 197 180 199 b 404 444 292 471 248 463 b 163 448 94 289 129 203 b 78 143 34 90 32 86 b 34 152 129 322 125 385 b 123 420 104 453 11 449 b 14 380 -73 166 -97 107 b -129 25 30 -2 30 -2 b 30 -2 88 77 155 166 b 156 165 157 164 158 163 b 260 81 474 379 474 379 l 441 405 b 441 405 269 159 191 192 z m 264 429 b 283 422 290 374 161 237 b 137 321 230 442 264 429 z"},"O":{"x_min":0,"x_max":630,"ha":630,"o":"m 483 722 b 427 740 373 723 328 688 b 308 703 284 712 255 708 b 89 684 -165 28 66 -66 b 341 -179 770 630 483 722 z m 403 223 b 283 39 184 -28 129 22 b 73 74 120 256 197 397 b 200 353 215 314 245 289 b 308 237 367 313 367 313 b 306 321 272 434 301 536 b 334 564 367 579 397 570 b 397 570 388 607 366 643 b 378 654 392 663 407 671 b 506 723 601 525 403 223 z"},"(":{"x_min":0,"x_max":320,"ha":320,"o":"m 299 593 b 299 593 249 677 157 583 b 114 540 -112 226 12 39 b 62 -38 141 20 141 20 b -76 52 80 415 299 593 z"},"C":{"x_min":0,"x_max":521,"ha":521,"o":"m 520 345 b 520 345 221 -21 102 15 b -98 77 298 661 428 596 b 481 569 408 341 279 436 b 279 436 217 320 324 326 b 385 328 478 404 512 500 b 532 557 532 627 497 677 b 404 809 223 635 155 561 b 64 463 -20 340 -50 207 b -77 85 -41 -68 88 -71 b 268 -75 547 312 547 312 l 520 345 z"},"W":{"x_min":0,"x_max":818,"ha":818,"o":"m 732 731 b 752 624 487 140 331 41 b 207 -37 427 438 474 544 b 498 595 382 689 382 689 b 382 689 170 143 3 55 b -85 8 234 500 241 600 b 245 656 117 683 117 683 b 109 441 -161 120 -99 -18 b -29 -174 142 29 262 305 b 223 188 208 91 239 22 b 337 -197 747 305 832 655 b 839 686 732 731 732 731 z"},"A":{"x_min":0,"x_max":732,"ha":732,"o":"m 603 188 b 670 184 640 268 640 268 b 630 259 608 256 580 257 b 637 440 711 643 698 725 b 682 746 596 736 580 716 b 543 669 412 469 266 304 b -52 315 -50 71 -50 71 b -50 71 -36 -77 48 -38 b 117 -6 225 114 328 243 b 377 236 432 224 480 213 b 446 111 423 20 437 -27 b 456 -92 527 -75 527 -75 b 502 -34 525 72 561 194 b 578 191 592 189 603 188 z m 22 94 b 42 141 116 213 205 238 b 143 176 80 123 22 94 z m 366 291 b 493 454 604 616 615 624 b 605 546 547 402 498 266 b 453 273 405 283 366 291 z"},"f":{"x_min":0,"x_max":198,"ha":198,"o":"m 273 383 l 243 416 b 180 332 97 230 35 167 b 79 257 129 463 192 556 b 109 626 72 571 72 571 b 72 571 -111 62 -122 30 l -255 -68 b -255 -68 -182 -121 -175 -127 b -201 -213 -224 -301 -234 -363 b -240 -398 -223 -458 -131 -448 b -43 -438 69 -370 23 -263 b 23 -263 23 -263 23 -263 b 8 -228 -25 -188 -82 -144 b -58 -63 -35 -3 -1 74 b 172 245 273 383 273 383 z m -161 -90 b -181 -76 -190 -70 -190 -70 l -143 -35 b -147 -49 -157 -78 -161 -90 z m -131 -404 b -129 -349 -108 -244 -93 -183 b 113 -333 -111 -409 -131 -404 z"},"Q":{"x_min":0,"x_max":634,"ha":634,"o":"m 402 228 b 281 45 183 -23 128 28 b 72 79 118 262 196 403 b 199 358 214 320 244 295 b 307 242 366 318 366 318 b 305 326 271 440 300 541 b 333 570 366 584 396 576 b 396 576 387 613 365 648 b 377 659 391 669 406 677 b 505 729 600 530 402 228 z m 264 -21 b 498 152 706 656 482 728 b 425 746 371 730 325 694 b 305 709 281 719 252 714 b 100 692 -125 148 7 -27 b -76 -45 -145 -79 -175 -133 b -217 -209 -105 -250 -105 -250 b -66 -60 333 -25 418 -155 b 418 -155 467 -128 445 -101 b 414 -62 345 -35 264 -21 z"},"w":{"x_min":0,"x_max":577,"ha":577,"o":"m 371 184 b 371 184 371 184 371 184 b 408 235 499 343 528 415 b 549 466 528 509 457 462 b 373 407 286 241 306 161 b 245 77 189 31 189 31 b 203 100 267 223 287 282 b 308 344 285 389 193 390 b 159 315 8 74 8 74 b 21 143 131 341 127 404 b 125 439 105 471 13 466 b 16 398 -68 183 -91 123 b -122 41 24 17 24 17 b 24 17 94 150 164 255 b 133 176 101 117 91 80 b 64 -11 197 -30 197 -30 b 197 -30 269 38 338 137 b 347 136 358 137 371 141 b 469 171 652 378 652 378 l 631 405 b 631 405 465 219 371 184 z m 453 396 b 492 405 428 322 428 322 b 410 301 376 257 351 222 b 355 293 427 390 453 396 z"},"-":{"x_min":0,"x_max":550,"ha":550,"o":"m 109 268 b 42 261 71 199 71 199 b 150 214 271 205 339 196 b 375 191 425 194 396 263 b 352 251 308 262 109 268 z"},"E":{"x_min":0,"x_max":493,"ha":493,"o":"m 121 -21 b -60 -35 133 366 260 288 b 260 288 301 386 235 392 b 229 393 222 392 214 391 b -55 373 220 670 358 646 b 410 637 407 572 318 563 b 318 563 333 489 402 508 b 504 536 539 716 355 716 b 77 716 -117 451 120 353 b 43 309 -42 231 -56 136 b -72 30 -8 -79 119 -71 b 288 -61 480 227 493 254 l 466 284 b 466 284 287 -8 121 -21 z"},"s":{"x_min":0,"x_max":305,"ha":305,"o":"m 335 405 b 335 405 218 324 104 242 b 100 248 95 254 90 259 b 51 304 83 397 133 382 b 149 378 152 356 152 346 b 152 346 200 320 194 375 b 185 452 67 479 12 402 b -31 341 -7 285 55 221 b 58 217 61 214 63 211 b -27 146 -104 85 -106 73 b -131 -64 130 17 151 143 b 154 161 145 184 130 206 b 238 288 353 375 353 375 l 335 405 z m -56 63 b -49 69 3 110 68 160 b 44 100 -69 50 -56 63 z"},">":{"x_min":0,"x_max":500,"ha":500,"o":"m 173 462 b 136 476 123 409 123 409 b 155 419 313 217 313 217 b 245 141 123 45 94 60 b 94 60 95 -8 134 -1 b 218 14 381 211 381 211 b 381 211 253 434 173 462 z"},"l":{"x_min":0,"x_max":229,"ha":229,"o":"m 5 100 b 52 226 163 449 220 626 b 230 659 204 695 111 698 b 23 409 -32 304 -108 120 b -136 37 -20 1 -20 1 l 304 380 l 273 405 l 5 100 z"},"8":{"x_min":0,"x_max":528,"ha":528,"o":"m 426 700 b 293 745 -41 462 106 338 b -96 147 -42 2 23 -13 b 92 -28 226 38 272 185 b 283 222 280 252 270 276 b 459 420 554 656 426 700 z m 45 63 b 2 75 112 204 176 274 b 257 158 96 49 45 63 z m 221 335 b 183 365 141 382 143 400 b 150 496 402 733 421 603 b 438 483 249 352 221 335 z"},"\\":{"x_min":0,"x_max":486,"ha":486,"o":"m 218 639 b 128 659 121 622 122 587 b 126 460 219 158 177 -7 b 177 -7 290 -20 284 68 b 257 264 193 577 218 639 z"},"e":{"x_min":0,"x_max":278,"ha":278,"o":"m 4 53 b -15 34 -35 136 7 194 b 7 194 97 208 146 248 b 213 303 214 481 99 442 b -43 394 -122 206 -113 107 b -105 23 -44 -15 4 3 b 104 91 355 381 355 381 l 324 405 b 324 405 72 117 4 53 z m 92 316 b 105 327 112 302 99 286 b 82 266 63 258 29 237 b 29 237 85 310 92 316 z"},"b":{"x_min":0,"x_max":438,"ha":438,"o":"m 281 221 b 309 294 318 432 251 448 b 233 453 154 388 106 344 b 149 453 184 541 214 647 b 224 681 196 715 103 716 b 25 424 -27 317 -97 131 b -138 -7 -4 -2 -4 -2 b -4 47 6 74 8 85 b 55 -61 149 16 204 93 l 502 375 l 478 405 l 281 221 z m 137 131 b 46 44 13 101 13 101 b 20 139 44 194 73 267 b 127 317 176 346 201 350 b 230 355 230 220 137 131 z"},"%":{"x_min":0,"x_max":571,"ha":571,"o":"m 304 634 b 313 567 177 280 103 95 b 76 12 189 -3 189 -3 b 187 167 350 438 385 560 b 395 594 397 631 304 634 z m 127 385 b 262 348 317 697 155 620 b 79 583 39 408 127 385 z m 180 570 b 223 611 244 559 202 476 b 170 414 138 415 131 435 b 116 474 143 535 180 570 z m 303 232 b 227 195 187 20 274 -3 b 410 -40 465 309 303 232 z m 350 89 b 318 26 286 28 279 47 b 264 86 291 147 328 182 b 371 224 391 171 350 89 z"},"m":{"x_min":0,"x_max":595,"ha":595,"o":"m 385 70 b 420 205 454 276 474 335 b 492 387 474 416 394 448 b 325 304 241 171 241 171 b 257 215 309 344 323 379 b 335 412 302 422 218 456 b 165 389 47 170 47 170 b 69 235 133 344 130 407 b 128 442 109 475 17 471 b 19 403 -65 188 -92 130 b -143 18 25 -2 25 -2 b 25 -2 112 201 194 331 b 166 241 126 145 113 109 b 85 25 183 -2 183 -2 b 183 -2 280 149 343 262 b 317 188 286 115 276 86 b 248 2 380 -12 380 -12 l 670 383 l 638 405 l 385 70 z"},"#":{"x_min":0,"x_max":813,"ha":813,"o":"m 627 315 b 662 318 697 321 667 409 b 643 388 606 381 560 382 b 591 454 619 520 631 562 b 640 596 633 631 541 634 b 546 599 510 502 464 391 b 432 395 399 401 364 406 b 391 469 414 524 425 562 b 435 596 428 631 335 634 b 339 602 310 518 270 419 b 241 422 212 425 183 425 b 95 422 111 330 111 330 b 146 341 190 344 238 343 b 231 326 224 309 217 292 b 187 296 157 298 127 299 b 39 295 56 203 56 203 b 91 214 136 217 184 216 b 166 174 149 132 134 95 b 106 12 219 -3 219 -3 b 222 50 248 128 281 210 b 315 207 350 203 383 200 b 367 163 352 127 340 95 b 312 12 425 -3 425 -3 b 428 45 450 115 479 190 b 514 187 545 186 571 188 b 607 191 642 194 612 282 b 588 261 551 254 505 255 b 514 276 523 296 531 317 b 567 314 600 313 627 315 z m 410 264 b 378 268 345 274 310 279 b 318 299 326 318 334 337 b 369 334 403 330 437 327 b 428 306 419 285 410 264 z"},",":{"x_min":0,"x_max":61,"ha":61,"o":"m 3 72 b -52 52 -21 10 -20 10 b -22 -6 -26 -23 -60 -22 b -60 -22 -42 -65 6 -53 b 31 -47 58 -19 59 23 b 60 54 31 82 3 72 z"},"n":{"x_min":0,"x_max":478,"ha":478,"o":"m 277 78 b 303 216 361 332 366 390 b 370 425 340 456 248 445 b 202 355 42 149 42 149 b 59 216 130 331 122 393 b 118 428 96 459 4 448 b 12 380 -95 132 -113 71 b -139 -13 -39 -30 -39 -30 b -39 -30 148 190 235 321 b 214 230 178 123 168 86 b 146 1 275 -3 275 -3 l 553 387 l 519 407 l 277 78 z"},"h":{"x_min":0,"x_max":448,"ha":448,"o":"m 245 109 b 245 155 341 306 395 378 b 395 378 376 434 331 435 b 305 436 280 423 263 404 b 194 323 18 157 18 157 b 72 285 176 486 232 649 b 243 682 218 718 125 724 b 30 436 -36 297 -116 115 b -146 33 -20 -2 -20 -2 b -20 2 224 299 224 299 b 224 299 158 182 132 125 b 90 34 204 2 204 2 l 523 380 l 493 405 l 245 109 z"},"z":{"x_min":0,"x_max":411,"ha":411,"o":"m 485 422 b 460 395 328 277 201 160 b 137 167 33 104 33 104 b 33 104 242 348 291 394 b 294 412 290 430 273 436 b 228 452 124 444 45 423 b 19 416 38 363 38 363 b 127 407 191 401 180 390 b 71 285 -16 193 -102 98 b -159 35 -61 -9 -61 -9 b -61 -9 43 51 120 85 b -97 -118 -325 -350 -270 -397 b -171 -482 270 23 247 121 b 246 124 246 127 245 129 b 376 253 510 377 510 377 l 485 422 z m -186 -317 b -212 -311 1 -102 194 81 b 147 -9 -122 -331 -186 -317 z"},"B":{"x_min":0,"x_max":712,"ha":712,"o":"m 49 556 b 28 459 128 427 158 466 b 123 498 122 565 206 628 b 309 707 554 657 540 600 b 526 542 355 459 282 427 b 209 396 215 293 215 293 b 313 363 495 348 480 254 b 460 118 253 32 117 18 b 116 39 120 65 127 95 b 137 88 144 80 145 75 b 145 75 186 95 167 122 b 159 132 150 139 140 146 b 188 303 294 516 301 551 b 307 585 308 631 215 634 b 222 568 121 337 48 157 b -19 141 -79 83 -58 18 b 6 -186 613 -31 573 245 b 551 393 386 390 386 390 b 386 390 560 464 585 559 b 633 742 111 841 49 556 z m 5 79 b 11 90 19 98 27 104 b 12 43 76 23 105 17 b 29 12 -21 31 5 79 z"},"K":{"x_min":0,"x_max":629,"ha":629,"o":"m 656 663 b 656 711 586 740 586 740 b 592 676 425 353 166 258 b 235 429 316 602 320 628 b 327 662 306 727 213 729 b 218 678 127 434 49 233 b 20 231 -9 232 -39 236 b -39 236 -70 188 -20 178 b -5 175 10 173 25 172 b 3 116 -17 67 -32 28 b -59 -55 68 -71 68 -71 b 65 -31 88 47 120 137 b 146 81 177 38 198 13 b 294 -104 433 -118 494 -94 b 530 -80 531 -17 527 3 b 324 -109 185 120 151 185 b 422 258 656 592 656 663 z"},"R":{"x_min":0,"x_max":571,"ha":571,"o":"m 317 202 b 535 298 590 548 382 696 b 280 769 4 789 -32 626 b -53 530 50 514 80 553 b 75 558 43 685 213 696 b 450 712 544 273 77 220 b 145 378 226 539 231 566 b 237 600 216 664 124 667 b 131 596 -38 214 -112 30 b -139 -53 -11 -69 -11 -69 b -15 -27 9 50 43 137 b 69 81 101 38 121 13 b 217 -104 356 -118 417 -94 b 453 -80 454 -17 450 3 b 270 -96 141 73 90 157 b 159 157 243 169 317 202 z"},"T":{"x_min":0,"x_max":390,"ha":390,"o":"m 646 641 b 688 675 647 757 647 757 b 565 692 213 769 40 726 b -57 702 -85 598 -10 532 b 26 500 74 492 105 508 b 149 533 111 582 111 582 b -25 557 -12 701 140 683 b 168 680 211 671 260 661 b 225 519 95 186 33 30 b 5 -53 133 -69 133 -69 b 123 60 367 570 375 616 b 377 623 377 630 376 638 b 488 618 603 606 646 641 z"},"P":{"x_min":0,"x_max":656,"ha":656,"o":"m 454 696 b 352 769 77 789 40 626 b 19 530 122 514 152 553 b 147 558 115 685 285 696 b 512 712 608 311 209 230 b 275 384 354 540 359 566 b 365 600 344 664 251 667 b 254 640 232 570 199 483 b 91 476 -65 394 -47 264 b -40 217 4 180 70 162 b 50 113 31 67 16 30 b -11 -53 116 -69 116 -69 b 113 -25 139 59 176 151 b 240 153 313 168 389 202 b 607 298 663 548 454 696 z m 165 393 b 142 335 117 275 93 217 b -51 219 69 346 165 393 z"},"|":{"x_min":0,"x_max":397,"ha":397,"o":"m 298 585 b 303 622 301 660 208 653 b 226 585 125 272 75 73 b 58 -16 172 -20 172 -20 b 150 157 279 455 298 585 z"},"t":{"x_min":0,"x_max":234,"ha":234,"o":"m 10 100 b 46 200 120 359 177 508 b 225 516 268 520 293 512 b 293 512 309 541 286 554 b 267 564 235 566 198 565 b 205 587 212 608 219 628 b 229 662 202 697 110 700 b 93 644 78 595 64 551 b -19 541 -98 531 -123 550 b -123 550 -131 508 -96 485 b -71 468 -19 473 40 483 b -10 340 -52 249 -103 119 b -131 36 -14 0 -14 0 l 308 381 l 278 405 l 10 100 z"},"M":{"x_min":0,"x_max":763,"ha":763,"o":"m 722 535 b 703 592 666 652 612 597 b 573 556 401 335 281 175 b 343 329 435 526 478 612 b 459 670 422 730 368 674 b 330 635 150 319 50 142 b 124 358 266 636 272 668 b 278 703 236 736 143 739 b 150 668 -19 236 -92 52 b -117 -25 -18 -65 -2 -70 l 204 291 b 172 195 150 113 131 31 b 117 -29 175 -29 220 -23 l 559 426 b 517 334 444 148 441 42 b 438 -37 529 -40 529 -40 b 511 -2 651 402 722 535 z"},"g":{"x_min":0,"x_max":374,"ha":374,"o":"m 440 407 b 440 407 338 301 232 188 b 253 252 275 320 298 394 b 310 431 174 446 174 446 b 177 435 175 413 169 381 b 165 414 152 447 119 450 b -25 462 -210 12 -16 0 b 43 70 83 129 109 170 b 89 110 65 45 40 -18 b -88 -157 -200 -285 -207 -309 b -230 -399 -134 -458 -73 -425 b 2 -384 99 -200 201 95 b 332 236 468 377 468 377 l 440 407 z m -157 -351 b -190 -355 -117 -261 -12 -140 b -66 -257 -120 -346 -157 -351 z m 3 88 b -13 123 129 316 129 316 b 140 270 75 179 3 88 z"},"j":{"x_min":0,"x_max":231,"ha":231,"o":"m 61 188 b 82 251 104 319 128 393 b 139 430 4 445 4 445 b 16 407 -50 183 -131 -17 b -260 -156 -373 -284 -380 -308 b -403 -398 -302 -460 -241 -427 b -166 -387 -73 -200 29 94 b 161 235 292 375 292 375 l 265 405 b 265 405 167 300 61 188 z m -330 -349 b -363 -354 -290 -260 -184 -140 b -238 -256 -293 -345 -330 -349 z m 125 498 b 130 527 156 567 184 609 b 196 626 129 666 96 645 b 74 632 49 548 49 536 b 50 514 105 506 125 498 z"},"i":{"x_min":0,"x_max":224,"ha":224,"o":"m 262 405 b 209 349 1 61 1 61 b 16 130 128 327 125 390 b 123 425 104 457 11 453 b 14 385 -73 171 -97 112 b -129 30 17 4 17 4 b 17 4 203 283 287 375 b 279 387 274 386 262 405 z m 111 498 b 115 527 141 567 170 609 b 181 626 114 666 81 645 b 59 632 34 548 35 536 b 36 514 90 506 111 498 z"},"y":{"x_min":0,"x_max":414,"ha":414,"o":"m 260 186 b 282 248 305 316 330 389 b 343 426 207 444 207 444 b 168 320 28 118 23 111 b 45 177 128 333 125 395 b 123 431 104 463 11 460 b 14 391 -74 178 -98 118 b -131 37 28 9 28 9 b 28 9 101 130 166 257 b 139 175 103 77 63 -16 b -68 -152 -184 -277 -191 -302 b -217 -391 -128 -459 -66 -427 b 9 -389 117 -199 226 93 b 361 231 489 374 489 374 l 462 405 b 462 405 368 295 260 186 z m -142 -344 b -176 -348 -101 -256 8 -137 b -49 -253 -105 -340 -142 -344 z"},"@":{"x_min":0,"x_max":768,"ha":768,"o":"m 558 594 b 467 640 367 632 275 570 b 162 494 90 355 100 232 b 107 138 185 15 258 19 b 297 21 301 73 301 73 b 210 48 148 156 141 236 b 132 343 198 469 298 536 b 377 588 462 596 539 557 b 634 509 639 405 612 324 b 582 233 504 148 423 157 l 444 218 b 490 321 568 454 586 480 b 513 541 462 496 462 496 l 441 444 b 441 444 443 512 403 512 b 278 512 159 221 218 142 b 263 82 317 163 353 206 b 349 195 345 176 351 155 b 357 136 392 119 410 117 b 520 106 615 203 651 311 b 684 408 676 534 558 594 z m 414 400 b 413 378 410 365 409 359 b 408 359 408 358 408 358 l 407 355 b 407 355 407 355 407 355 b 403 345 400 335 396 325 b 384 293 367 263 344 238 b 335 227 325 219 320 219 b 317 219 316 220 315 223 b 307 255 417 462 414 400 z"},".":{"x_min":0,"x_max":100,"ha":100,"o":"m 10 88 b -6 71 -26 11 -25 1 b -24 -17 28 -30 41 -17 b 41 -17 69 49 74 66 b 79 82 25 105 10 88 z"},"p":{"x_min":0,"x_max":419,"ha":419,"o":"m 277 235 b 373 413 294 496 205 402 b 155 350 130 319 82 253 b 98 297 114 336 127 370 b 140 403 112 443 19 447 b -71 158 -159 -126 -235 -309 b -287 -416 -150 -434 -150 -434 b -147 -393 -69 -160 6 49 b -2 -51 96 -6 179 75 l 475 374 l 453 405 l 277 235 z m 44 91 b 33 89 26 88 21 89 b 22 91 23 94 24 97 b 64 153 177 308 196 326 b 215 312 154 109 44 91 z"},"X":{"x_min":0,"x_max":513,"ha":513,"o":"m 426 663 b 344 658 281 542 217 408 b 183 569 157 715 139 729 b 111 751 76 766 1 711 b 56 652 111 464 159 285 b 81 126 -4 -16 -129 17 b -136 -3 -121 -62 -94 -67 b 17 -88 106 36 186 180 b 203 112 219 50 233 2 b 277 -135 387 -37 387 -37 b 329 -8 282 135 244 291 b 324 445 398 588 481 575 b 481 575 513 668 426 663 z"},"*":{"x_min":0,"x_max":202,"ha":202,"o":"m 172 555 b 165 566 151 583 135 596 b 154 601 175 603 184 601 b 202 598 187 649 168 648 b 158 648 142 645 126 640 b 132 653 140 665 145 670 b 158 683 107 700 97 685 b 90 674 80 652 75 632 b 60 642 47 654 42 660 b 31 676 6 629 19 616 b 28 607 49 593 68 586 b 53 569 28 554 18 551 b 0 546 36 507 53 515 b 66 523 93 543 105 563 b 121 549 135 528 138 518 b 145 501 181 539 172 555 z"},"Y":{"x_min":0,"x_max":559,"ha":559,"o":"m 540 243 l 523 288 b 483 260 428 229 368 196 b 438 341 487 475 497 500 b 525 564 394 566 394 566 b 394 566 252 282 43 157 b -42 106 204 548 212 648 b 216 705 88 731 88 731 b 80 490 -163 182 -46 89 b -3 55 162 132 338 378 b 303 294 255 195 205 108 b 81 39 -33 -34 -71 -105 b -93 -146 -66 -196 -21 -205 b 108 -232 237 -54 334 130 b 446 193 540 243 540 243 z m -19 -115 b -44 -104 41 -43 153 24 b 89 -71 25 -135 -19 -115 z"},"c":{"x_min":0,"x_max":309,"ha":309,"o":"m 35 75 b 13 67 0 91 -3 129 b -12 279 151 394 168 363 b 182 335 117 320 117 320 b 117 320 112 271 167 277 b 233 283 268 402 177 443 b 30 510 -144 233 -76 73 b -30 -37 21 -7 99 59 b 147 100 262 227 384 377 l 355 405 b 355 405 119 105 35 75 z"},"!":{"x_min":0,"x_max":351,"ha":351,"o":"m 201 633 b 199 534 163 453 90 269 b 62 185 156 175 156 175 b 220 361 256 461 305 544 b 329 587 294 631 201 633 z m 57 133 b 43 112 25 38 25 26 b 27 4 74 -13 85 3 b 85 3 118 92 123 112 b 127 133 71 154 57 133 z"},"/":{"x_min":0,"x_max":395,"ha":395,"o":"m 305 633 b 304 565 123 297 21 123 b -20 43 90 10 90 10 b 116 182 320 428 373 546 b 388 579 397 616 305 633 z"},"[":{"x_min":0,"x_max":369,"ha":369,"o":"m 342 613 b 314 634 201 633 176 634 b 168 547 -28 34 -28 3 b -11 -2 130 -12 163 -1 b 188 7 177 38 177 38 b 145 23 72 50 57 57 b 121 231 237 559 249 586 b 285 578 331 571 343 560 b 343 560 363 596 342 613 z"},"6":{"x_min":0,"x_max":453,"ha":453,"o":"m 322 686 b 84 619 -191 41 100 -9 b 326 -49 508 393 101 289 b 101 289 183 603 404 599 b 404 599 444 720 322 686 z m 204 76 b 90 5 77 147 87 222 b 342 321 296 134 204 76 z"},"r":{"x_min":0,"x_max":316,"ha":316,"o":"m 74 97 b 74 97 219 274 184 356 b 166 400 135 407 103 422 b 132 462 190 604 88 619 b 15 629 -55 479 66 379 b 108 345 142 327 -53 94 b -105 31 35 -32 35 -32 b 150 134 389 392 389 392 l 358 421 l 74 97 z m 62 451 b 13 502 56 575 76 579 b 115 587 122 514 72 442 b 68 445 65 448 62 451 z"},"2":{"x_min":0,"x_max":448,"ha":448,"o":"m 81 113 b 81 113 545 493 357 671 b 300 725 178 703 145 621 b 110 533 190 531 190 531 b 186 608 304 709 306 596 b 309 490 174 246 -55 116 b -48 -34 202 102 223 -9 b 223 -9 314 -9 290 62 b 259 157 81 113 81 113 z"},"{":{"x_min":0,"x_max":408,"ha":408,"o":"m 408 600 b 408 636 283 696 192 557 b 89 397 110 415 33 378 b 33 378 60 323 58 287 b 55 233 2 133 54 36 b 74 -2 135 -7 156 7 b 188 29 175 63 175 63 b 175 63 149 39 112 62 b 88 77 81 119 94 179 b 107 234 128 292 108 348 b 146 373 170 416 194 451 b 229 501 260 559 300 581 b 365 616 374 559 374 559 b 374 559 408 558 408 600 z"},"9":{"x_min":0,"x_max":480,"ha":480,"o":"m 307 701 b 312 682 308 651 299 612 b 295 645 284 693 251 703 b 140 738 0 459 15 345 b 36 184 128 247 212 355 b 161 225 107 102 99 67 b 81 -13 189 -9 189 -9 b 197 92 370 522 401 622 b 427 703 307 701 307 701 z m 267 501 b 267 501 209 354 117 324 b 68 309 161 641 248 621 b 276 614 267 501 267 501 b 267 501 267 501 267 501 z"}," ":{"x_min":0,"x_max":236,"ha":236,"o":""},"I":{"x_min":0,"x_max":438,"ha":438,"o":"m 342 460 b 426 499 577 583 504 651 b 356 788 -4 740 -84 579 b -122 502 -21 451 -21 451 b -1 572 161 651 298 663 b 264 522 133 187 71 30 b 43 -53 171 -69 171 -69 b 165 14 267 275 342 460 z m 474 618 b 498 588 437 558 374 537 b 397 595 414 638 418 653 b 442 645 461 634 474 618 z"},"H":{"x_min":0,"x_max":698,"ha":698,"o":"m 543 750 b 548 703 476 499 406 313 b 347 347 277 371 208 381 b 257 499 301 597 304 616 b 311 651 290 715 197 717 b 201 679 153 536 98 383 b 38 378 -15 358 -51 324 b -113 265 -35 182 -35 182 b -17 216 14 240 50 257 b 17 170 -15 88 -38 30 b -66 -53 62 -69 62 -69 b 57 -7 111 143 169 287 b 243 293 323 282 385 258 b 356 183 329 113 308 63 b 281 -21 408 -37 408 -37 b 408 -37 588 74 527 193 b 516 214 501 234 484 252 b 549 435 635 635 640 662 b 647 697 636 747 543 750 z m 496 169 b 514 117 452 69 420 49 b 431 95 448 150 468 209 b 481 197 491 184 496 169 z"},"4":{"x_min":0,"x_max":489,"ha":489,"o":"m 366 701 b 381 644 319 475 259 325 b 217 333 159 334 108 330 b 164 449 220 563 239 608 b 271 686 151 694 151 694 b 161 659 120 449 0 320 b 0 307 6 291 31 283 b 79 297 177 281 237 269 b 198 174 164 94 158 67 b 140 -13 248 -9 248 -9 b 256 92 428 522 460 622 b 486 703 366 701 366 701 z"},"~":{"x_min":0,"x_max":390,"ha":390,"o":"m 216 263 b 208 208 165 213 128 237 b 85 266 46 289 20 271 b -18 245 31 180 31 180 b 29 206 62 238 110 207 b 153 179 203 154 228 181 b 264 217 216 263 216 263 z"},"D":{"x_min":0,"x_max":728,"ha":728,"o":"m 528 683 b 404 753 101 719 65 556 b 43 460 144 427 174 466 b 149 489 135 536 171 576 b 293 714 490 674 539 615 b 646 486 391 79 177 22 b 176 67 195 136 223 209 b 238 208 250 201 253 186 b 253 186 316 235 283 263 b 275 270 264 275 250 278 b 300 401 359 519 364 544 b 370 579 361 631 268 634 b 273 582 211 425 148 272 b 48 247 -62 172 -46 61 b -31 -42 153 -135 356 0 b 691 222 752 555 528 683 z m 123 15 b -28 21 24 106 103 162 b 96 144 89 127 82 110 b 61 46 127 25 160 18 b 147 16 135 15 123 15 z"},"^":{"x_min":0,"x_max":268,"ha":268,"o":"m 125 521 b 125 521 159 529 148 549 b 127 590 86 663 86 663 b 86 663 44 602 11 554 b 0 538 30 521 30 521 b 62 565 82 586 82 586 b 106 552 109 544 125 521 z"},"0":{"x_min":0,"x_max":542,"ha":542,"o":"m 219 673 b 22 574 -118 86 126 -2 b 463 -123 637 883 219 673 z m 356 242 b 275 63 181 48 146 93 b 41 230 158 485 256 583 b 378 703 446 443 356 242 z"},"F":{"x_min":0,"x_max":562,"ha":562,"o":"m 595 575 b 595 575 671 609 639 648 b 592 705 452 695 314 684 b 298 702 270 716 228 717 b 229 709 227 695 223 677 b 129 671 45 671 7 701 b 7 701 -34 618 8 584 b 40 558 114 563 196 578 b 174 509 144 424 112 339 b 70 335 32 327 3 316 b -50 295 -14 242 -14 242 b -2 258 39 270 89 276 b 53 181 18 92 -7 30 b -35 -53 93 -69 93 -69 b 88 -9 140 135 196 276 b 222 273 246 268 265 261 b 351 229 367 191 367 191 b 367 191 452 225 400 273 b 360 311 293 331 222 338 b 271 459 320 567 332 605 b 407 621 475 633 514 627 b 583 615 595 575 595 575 z"},"`":{"x_min":0,"x_max":228,"ha":228,"o":"m 92 516 b 114 511 130 528 120 545 b 91 563 65 620 57 641 b 48 665 -2 611 12 590 b 25 568 62 522 92 516 z"},"k":{"x_min":0,"x_max":380,"ha":380,"o":"m 58 159 b 260 200 333 430 240 409 b 198 400 141 349 81 289 b 124 401 174 529 204 639 b 213 673 185 708 92 707 b 17 414 -34 307 -101 120 b -140 -2 -7 -2 -7 -2 b -9 15 1 67 14 109 b -6 -145 241 52 457 378 l 422 407 b -4 -206 58 159 58 159 z m 234 344 b 194 260 83 215 48 202 b 48 202 277 435 234 344 z"},"u":{"x_min":0,"x_max":441,"ha":441,"o":"m 233 75 b 269 210 304 264 324 324 b 336 358 314 407 222 404 b -3 3 11 114 13 122 b 30 189 112 321 125 394 b 131 428 112 469 20 466 b 22 397 -79 175 -93 113 b -115 11 -28 -47 46 32 b 103 93 130 145 202 293 b 173 204 137 128 124 91 b 96 8 224 -6 224 -6 l 516 383 l 484 405 l 233 75 z"},"]":{"x_min":0,"x_max":328,"ha":328,"o":"m 134 629 b 109 620 120 589 120 589 b 152 604 225 578 240 571 b 175 397 59 69 48 41 b 12 49 -34 56 -46 67 b -46 67 -66 31 -45 15 b -17 -6 96 -6 120 -6 b 129 80 325 594 325 624 b 308 629 167 640 134 629 z"},"U":{"x_min":0,"x_max":567,"ha":567,"o":"m 477 745 l 456 683 b 456 683 179 143 12 55 b -76 8 243 500 250 600 b 254 656 126 683 126 683 b 118 441 -152 120 -90 -18 b -15 -183 155 49 335 351 b 266 187 190 36 186 12 b 180 -22 239 -61 332 -64 b 322 90 493 439 567 623 b 592 700 493 739 477 745 z"},"o":{"x_min":0,"x_max":393,"ha":393,"o":"m 263 229 b 285 292 292 356 278 407 b 256 489 196 474 147 425 b 128 445 100 455 58 433 b -43 380 -159 91 -30 16 b 73 -44 186 58 245 184 b 309 203 386 259 468 376 l 437 405 b 437 405 358 276 263 229 z m 75 50 b 10 33 43 137 90 225 b 111 196 150 174 202 177 b 171 116 126 64 75 50 z m 220 214 b 188 209 155 215 124 241 b 118 246 115 254 114 265 b 140 306 168 336 184 337 b 184 337 181 367 167 395 b 179 408 192 416 206 418 b 268 428 263 317 220 214 z"},"N":{"x_min":0,"x_max":563,"ha":563,"o":"m 533 606 b 514 664 476 707 422 652 b 384 612 198 342 59 150 b 132 365 260 633 265 665 b 272 700 223 736 130 739 b 139 584 -32 236 -105 52 b -131 -25 -31 -65 -16 -70 l 415 531 b 415 531 250 192 266 68 b 275 -6 382 15 382 15 b 321 100 477 459 533 606 z"},"+":{"x_min":0,"x_max":564,"ha":564,"o":"m 278 264 b 279 291 281 323 282 360 b 274 427 204 398 204 398 b 211 361 213 314 212 268 b 184 269 152 270 115 271 b 48 264 76 202 76 202 b 114 209 162 211 209 210 b 207 180 203 152 200 130 b 195 94 198 44 277 73 b 268 102 270 132 274 206 b 301 204 325 201 345 199 b 380 194 430 197 401 266 b 373 259 345 260 278 264 z"},"G":{"x_min":0,"x_max":542,"ha":542,"o":"m 514 287 b 477 261 428 233 374 203 b 422 305 454 392 463 413 b 481 454 433 470 396 475 b 453 528 466 689 385 712 b 214 761 -69 454 -86 161 b -95 10 46 6 292 272 b 269 222 241 167 211 116 b 82 45 -41 -32 -80 -106 b -102 -147 -75 -197 -30 -206 b 114 -236 249 -41 341 138 b 445 197 530 242 530 242 l 514 287 z m 10 135 b -12 201 162 527 305 593 b 367 621 360 523 269 505 b 269 505 295 445 359 457 b 357 439 349 414 339 384 b 241 268 28 80 10 135 z m -29 -116 b -55 -104 41 -38 160 33 b 92 -67 21 -139 -29 -116 z"},"q":{"x_min":0,"x_max":380,"ha":380,"o":"m 209 191 b 259 278 306 352 338 400 b 260 475 198 428 198 428 l 170 370 b 170 370 178 447 132 450 b -10 459 -150 174 -101 38 b -65 -64 16 54 52 107 b 42 84 33 61 23 38 b -49 -16 -96 -44 -96 -44 b -96 -44 -73 -76 -41 -122 b -73 -207 -100 -286 -114 -347 b -122 -382 -109 -445 -17 -438 b 72 -431 130 -395 127 -322 b 125 -282 84 -215 43 -159 b 72 -80 108 0 146 74 b 330 234 451 381 451 381 l 425 418 b 346 326 274 250 209 191 z m -22 -74 b -31 -64 -36 -58 -36 -58 b -27 -51 -18 -45 -9 -39 b -13 -51 -18 -62 -22 -74 z m 60 -268 b 135 -376 -12 -394 -14 -395 b -9 -339 5 -276 24 -216 b 36 -233 48 -251 60 -268 z m 137 322 b 134 297 130 283 127 276 b 127 276 127 275 127 275 l 125 272 b 125 272 125 272 125 271 b 120 261 115 250 110 238 b 94 203 73 171 45 144 b 33 132 22 124 16 124 b 13 124 11 126 11 129 b 4 166 145 392 137 322 z"},"d":{"x_min":0,"x_max":396,"ha":396,"o":"m 182 84 b 225 212 328 439 378 617 b 388 651 360 686 267 686 b 234 562 206 471 178 393 b 178 407 175 467 134 466 b -8 464 -159 141 -82 19 b -47 -36 28 44 69 102 b 69 102 69 101 68 101 b 70 21 163 0 163 0 l 484 376 l 453 400 l 182 84 z m 149 338 b 148 315 141 292 130 271 b 103 220 49 132 44 132 b 41 132 39 133 38 137 b 28 172 151 409 149 339 b 149 339 149 338 149 338 z"},"1":{"x_min":0,"x_max":343,"ha":343,"o":"m 195 701 b 195 701 172 628 69 614 b 69 614 48 561 103 559 b 119 558 153 581 180 607 b 135 435 0 148 -13 67 b -25 -14 77 -9 77 -9 b 85 92 257 522 289 622 b 315 703 195 701 195 701 z"},"5":{"x_min":0,"x_max":507,"ha":507,"o":"m 472 687 b 426 642 306 706 174 703 b 172 703 172 703 172 703 b 188 642 27 231 24 224 l 24 223 b 26 224 74 250 128 272 b 185 293 251 308 290 285 b 413 212 82 -39 13 145 b 13 145 -31 90 -12 45 b 24 -40 226 -31 323 81 b 495 279 317 370 162 337 b 162 338 162 338 163 339 b 195 481 267 633 267 637 b 322 610 382 578 446 605 b 488 621 472 687 472 687 z"}}}
